<svg xmlns="http://www.w3.org/2000/svg" width="26.681" height="26.681" viewBox="0 0 26.681 26.681">
  <g id="iconfinder_circle-check_430087" transform="translate(-13.903 -13.871)" opacity="0.998">
    <g id="Grupo_244" data-name="Grupo 244" transform="translate(13.903 13.871)">
      <path id="Caminho_88" data-name="Caminho 88" d="M32.894,22.552,24.7,30.742l-3.109-3.109a.532.532,0,1,0-.753.752L24.7,32.248,33.647,23.3a.532.532,0,0,0-.753-.752Zm-5.65-8.681a13.341,13.341,0,1,0,0,26.681h0a13.341,13.341,0,0,0,0-26.681Zm0,25.617h0A12.276,12.276,0,1,1,39.52,27.211,12.291,12.291,0,0,1,27.244,39.488Z" transform="translate(-13.903 -13.871)"/>
    </g>
  </g>
</svg>
